<?xml version="1.0" encoding="utf-8"?><svg xml:space="preserve" viewBox="0 0 100 100" y="0" x="0" xmlns="http://www.w3.org/2000/svg" id="圖層_1" version="1.1" width="200px" height="200px" data-darkreader-inline-bgimage="" data-darkreader-inline-bgcolor="" xmlns:xlink="http://www.w3.org/1999/xlink" style="width:100%;height:100%;background-size:initial;background-repeat-y:initial;background-repeat-x:initial;background-position-y:initial;background-position-x:initial;background-origin:initial;background-color:initial;background-clip:initial;background-attachment:initial;animation-play-state:paused" ><g class="ldl-scale" style="transform-origin:50% 50%;transform:rotate(0deg) scale(0.8, 0.8);animation-play-state:paused" ><circle stroke-miterlimit="10" stroke-width="6" stroke="#333" fill="#333" r="5.75" cy="15" cx="50" data-darkreader-inline-fill="" data-darkreader-inline-stroke="" style="stroke:rgb(51, 51, 51);fill:rgb(51, 51, 51);animation-play-state:paused" ></circle>
<g style="animation-play-state:paused" ><path fill="#333" d="M46.936 52.571c-2.587-2.697-5.023-5.521-7.406-8.39-2.392-2.861-4.694-5.797-6.979-8.748-2.256-2.975-4.493-5.966-6.64-9.033-2.157-3.058-4.259-6.162-6.208-9.395a2.025 2.025 0 0 1 3.064-2.571c2.845 2.481 5.537 5.09 8.174 7.746 2.647 2.647 5.204 5.369 7.743 8.107 2.509 2.762 5.001 5.539 7.404 8.392 2.412 2.844 4.77 5.734 6.977 8.75a4.01 4.01 0 0 1-6.129 5.142z" data-darkreader-inline-fill="" style="fill:rgb(51, 51, 51);animation-play-state:paused" ></path></g>
<path stroke-miterlimit="10" stroke-linecap="round" stroke-width="8" stroke="#333" fill="none" d="M71.713 22.547C79.807 28.958 85 38.873 85 50c0 19.33-15.67 35-35 35S15 69.33 15 50c0-4.709.93-9.202 2.617-13.303" data-darkreader-inline-stroke="" style="stroke:rgb(51, 51, 51);animation-play-state:paused" ></path>
<metadata xmlns:d="https://loading.io/stock/" style="animation-play-state:paused" ><d:name style="animation-play-state:paused" >timer</d:name>
<d:tags style="animation-play-state:paused" >clock,camera,timed shutter,timer,camera</d:tags>
<d:license style="animation-play-state:paused" >by</d:license>
<d:slug style="animation-play-state:paused" >zhk2bz</d:slug></metadata></g><!-- generated by https://loading.io/ --></svg>